<svg width="126" height="20" viewBox="0 0 126 20" fill="none" xmlns="http://www.w3.org/2000/svg">
<path d="M0.792 10.552C0.792 8.888 1.152 7.408 1.872 6.112C2.592 4.8 3.592 3.784 4.872 3.064C6.168 2.328 7.632 1.96 9.264 1.96C11.264 1.96 12.976 2.488 14.4 3.544C15.824 4.6 16.776 6.04 17.256 7.864H12.744C12.408 7.16 11.928 6.624 11.304 6.256C10.696 5.888 10 5.704 9.216 5.704C7.952 5.704 6.928 6.144 6.144 7.024C5.36 7.904 4.968 9.08 4.968 10.552C4.968 12.024 5.36 13.2 6.144 14.08C6.928 14.96 7.952 15.4 9.216 15.4C10 15.4 10.696 15.216 11.304 14.848C11.928 14.48 12.408 13.944 12.744 13.24H17.256C16.776 15.064 15.824 16.504 14.4 17.56C12.976 18.6 11.264 19.12 9.264 19.12C7.632 19.12 6.168 18.76 4.872 18.04C3.592 17.304 2.592 16.288 1.872 14.992C1.152 13.696 0.792 12.216 0.792 10.552ZM18.9533 12.28C18.9533 10.904 19.2093 9.696 19.7213 8.656C20.2493 7.616 20.9613 6.816 21.8573 6.256C22.7533 5.696 23.7533 5.416 24.8573 5.416C25.8013 5.416 26.6253 5.608 27.3293 5.992C28.0493 6.376 28.6013 6.88 28.9853 7.504V5.608H33.0893V19H28.9853V17.104C28.5853 17.728 28.0253 18.232 27.3053 18.616C26.6013 19 25.7773 19.192 24.8333 19.192C23.7453 19.192 22.7533 18.912 21.8573 18.352C20.9613 17.776 20.2493 16.968 19.7213 15.928C19.2093 14.872 18.9533 13.656 18.9533 12.28ZM28.9853 12.304C28.9853 11.28 28.6973 10.472 28.1213 9.88C27.5613 9.288 26.8733 8.992 26.0573 8.992C25.2413 8.992 24.5453 9.288 23.9693 9.88C23.4093 10.456 23.1293 11.256 23.1293 12.28C23.1293 13.304 23.4093 14.12 23.9693 14.728C24.5453 15.32 25.2413 15.616 26.0573 15.616C26.8733 15.616 27.5613 15.32 28.1213 14.728C28.6973 14.136 28.9853 13.328 28.9853 12.304ZM41.5063 19.192C40.3383 19.192 39.2983 18.992 38.3863 18.592C37.4743 18.192 36.7543 17.648 36.2263 16.96C35.6983 16.256 35.4023 15.472 35.3383 14.608H39.3943C39.4423 15.072 39.6583 15.448 40.0423 15.736C40.4263 16.024 40.8983 16.168 41.4583 16.168C41.9703 16.168 42.3623 16.072 42.6343 15.88C42.9223 15.672 43.0663 15.408 43.0663 15.088C43.0663 14.704 42.8663 14.424 42.4663 14.248C42.0663 14.056 41.4183 13.848 40.5223 13.624C39.5623 13.4 38.7623 13.168 38.1223 12.928C37.4823 12.672 36.9303 12.28 36.4663 11.752C36.0023 11.208 35.7703 10.48 35.7703 9.568C35.7703 8.8 35.9783 8.104 36.3943 7.48C36.8263 6.84 37.4503 6.336 38.2663 5.968C39.0983 5.6 40.0823 5.416 41.2183 5.416C42.8983 5.416 44.2183 5.832 45.1783 6.664C46.1543 7.496 46.7143 8.6 46.8583 9.976H43.0663C43.0023 9.512 42.7943 9.144 42.4423 8.872C42.1063 8.6 41.6583 8.464 41.0983 8.464C40.6183 8.464 40.2503 8.56 39.9943 8.752C39.7383 8.928 39.6103 9.176 39.6103 9.496C39.6103 9.88 39.8103 10.168 40.2103 10.36C40.6263 10.552 41.2663 10.744 42.1303 10.936C43.1223 11.192 43.9303 11.448 44.5543 11.704C45.1783 11.944 45.7223 12.344 46.1863 12.904C46.6663 13.448 46.9143 14.184 46.9303 15.112C46.9303 15.896 46.7063 16.6 46.2583 17.224C45.8263 17.832 45.1943 18.312 44.3623 18.664C43.5463 19.016 42.5943 19.192 41.5063 19.192ZM57.6731 5.464C59.2091 5.464 60.4411 5.976 61.3691 7C62.2971 8.008 62.7611 9.4 62.7611 11.176V19H58.6811V11.728C58.6811 10.832 58.4491 10.136 57.9851 9.64C57.5211 9.144 56.8971 8.896 56.1131 8.896C55.3291 8.896 54.7051 9.144 54.2411 9.64C53.7771 10.136 53.5451 10.832 53.5451 11.728V19H49.4411V1.24H53.5451V7.408C53.9611 6.816 54.5291 6.344 55.2491 5.992C55.9691 5.64 56.7771 5.464 57.6731 5.464ZM71.013 2.224C72.869 2.224 74.461 2.56 75.789 3.232C77.117 3.904 78.133 4.872 78.837 6.136C79.541 7.4 79.893 8.904 79.893 10.648C79.893 12.376 79.541 13.872 78.837 15.136C78.133 16.384 77.117 17.344 75.789 18.016C74.461 18.672 72.869 19 71.013 19H66.045V2.224H71.013ZM71.013 17.608C73.349 17.608 75.125 17 76.341 15.784C77.573 14.552 78.189 12.84 78.189 10.648C78.189 8.44 77.573 6.72 76.341 5.488C75.125 4.24 73.349 3.616 71.013 3.616H67.725V17.608H71.013ZM94.8463 11.776C94.8463 12.352 94.8303 12.792 94.7983 13.096H83.9263C83.9743 14.088 84.2143 14.936 84.6463 15.64C85.0783 16.344 85.6463 16.88 86.3503 17.248C87.0543 17.6 87.8223 17.776 88.6543 17.776C89.7423 17.776 90.6543 17.512 91.3903 16.984C92.1423 16.456 92.6383 15.744 92.8783 14.848H94.6543C94.3343 16.128 93.6463 17.176 92.5903 17.992C91.5503 18.792 90.2383 19.192 88.6543 19.192C87.4223 19.192 86.3183 18.92 85.3423 18.376C84.3663 17.816 83.5983 17.032 83.0383 16.024C82.4943 15 82.2223 13.808 82.2223 12.448C82.2223 11.088 82.4943 9.896 83.0383 8.872C83.5823 7.848 84.3423 7.064 85.3183 6.52C86.2943 5.976 87.4063 5.704 88.6543 5.704C89.9023 5.704 90.9903 5.976 91.9183 6.52C92.8623 7.064 93.5823 7.8 94.0783 8.728C94.5903 9.64 94.8463 10.656 94.8463 11.776ZM93.1423 11.728C93.1583 10.752 92.9583 9.92 92.5423 9.232C92.1423 8.544 91.5903 8.024 90.8863 7.672C90.1823 7.32 89.4143 7.144 88.5823 7.144C87.3343 7.144 86.2703 7.544 85.3903 8.344C84.5103 9.144 84.0223 10.272 83.9263 11.728H93.1423ZM99.576 8.8C100.008 7.888 100.672 7.144 101.568 6.568C102.48 5.992 103.552 5.704 104.784 5.704C105.984 5.704 107.056 5.984 108 6.544C108.944 7.088 109.68 7.872 110.208 8.896C110.752 9.904 111.024 11.08 111.024 12.424C111.024 13.768 110.752 14.952 110.208 15.976C109.68 17 108.936 17.792 107.976 18.352C107.032 18.912 105.968 19.192 104.784 19.192C103.536 19.192 102.456 18.912 101.544 18.352C100.648 17.776 99.992 17.032 99.576 16.12V19H97.92V1.24H99.576V8.8ZM109.32 12.424C109.32 11.336 109.104 10.4 108.672 9.616C108.256 8.816 107.68 8.208 106.944 7.792C106.208 7.376 105.376 7.168 104.448 7.168C103.552 7.168 102.728 7.384 101.976 7.816C101.24 8.248 100.656 8.864 100.224 9.664C99.792 10.464 99.576 11.392 99.576 12.448C99.576 13.504 99.792 14.432 100.224 15.232C100.656 16.032 101.24 16.648 101.976 17.08C102.728 17.512 103.552 17.728 104.448 17.728C105.376 17.728 106.208 17.52 106.944 17.104C107.68 16.672 108.256 16.056 108.672 15.256C109.104 14.44 109.32 13.496 109.32 12.424ZM114.955 3.424C114.619 3.424 114.331 3.304 114.091 3.064C113.851 2.824 113.731 2.528 113.731 2.176C113.731 1.824 113.851 1.536 114.091 1.312C114.331 1.072 114.619 0.951999 114.955 0.951999C115.291 0.951999 115.579 1.072 115.819 1.312C116.059 1.536 116.179 1.824 116.179 2.176C116.179 2.528 116.059 2.824 115.819 3.064C115.579 3.304 115.291 3.424 114.955 3.424ZM115.795 5.896V19H114.115V5.896H115.795ZM121.784 7.312V15.448C121.784 16.248 121.936 16.8 122.24 17.104C122.544 17.408 123.08 17.56 123.848 17.56H125.384V19H123.584C122.4 19 121.52 18.728 120.944 18.184C120.368 17.624 120.08 16.712 120.08 15.448V7.312H118.256V5.896H120.08V2.608H121.784V5.896H125.384V7.312H121.784Z" fill="white"/>
</svg>
