<svg width="18" height="19" viewBox="0 0 18 19" fill="none" xmlns="http://www.w3.org/2000/svg">
<rect y="0.5" width="18" height="18" rx="9" fill="white"/>
<path fill-rule="evenodd" clip-rule="evenodd" d="M13.7803 6.14991C13.921 6.29063 14 6.48146 14 6.68045C14 6.87943 13.921 7.07026 13.7803 7.21098L8.15573 12.8355C8.0814 12.9099 7.99315 12.9689 7.89603 13.0091C7.7989 13.0493 7.6948 13.0701 7.58967 13.0701C7.48454 13.0701 7.38044 13.0493 7.28331 13.0091C7.18619 12.9689 7.09794 12.9099 7.02361 12.8355L4.22909 10.0415C4.15742 9.9723 4.10025 9.8895 4.06092 9.79795C4.0216 9.70639 4.00089 9.60792 4.00003 9.50829C3.99916 9.40865 4.01815 9.30983 4.05588 9.21761C4.09361 9.12539 4.14933 9.0416 4.21979 8.97115C4.29025 8.90069 4.37403 8.84497 4.46625 8.80724C4.55848 8.76951 4.65729 8.75052 4.75693 8.75138C4.85657 8.75225 4.95504 8.77295 5.04659 8.81228C5.13814 8.85161 5.22095 8.90878 5.29017 8.98045L7.58942 11.2797L12.7187 6.14991C12.7884 6.08017 12.8711 6.02486 12.9622 5.98711C13.0533 5.94937 13.1509 5.92995 13.2495 5.92995C13.3481 5.92995 13.4457 5.94937 13.5368 5.98711C13.6279 6.02486 13.7106 6.08017 13.7803 6.14991Z" fill="#333333"/>
</svg>
