<svg width="100" height="98" viewBox="0 0 100 98" fill="none" xmlns="http://www.w3.org/2000/svg">
<g clip-path="url(#clip0_46_351)">
<path d="M64.5 85C64.5 83.3 64.25 80.65 64.5 79H10V29L50 54L90 29L89.5 65C95.5 65 96.95 79.75 100 81.5V19C100 13.5 95.5 9 90 9H10C4.5 9 0 13.5 0 19V79C0 84.5 4.5 89 10 89H64.5C64.25 87.35 64.5 86.7 64.5 85ZM90 19L50 44L10 19H90Z" fill="#333333"/>
<rect x="59.928" y="57.9279" width="40.4643" height="40.4643" rx="20.2321" fill="#333333"/>
<rect x="59.928" y="57.9279" width="40.4643" height="40.4643" rx="20.2321" stroke="white" stroke-width="4.46429"/>
<path fill-rule="evenodd" clip-rule="evenodd" d="M89.7207 71.4598C90.0021 71.7413 90.1602 72.1229 90.1602 72.5209C90.1602 72.9189 90.0021 73.3005 89.7207 73.582L78.4716 84.8311C78.323 84.9798 78.1465 85.0977 77.9522 85.1782C77.758 85.2587 77.5498 85.3001 77.3395 85.3001C77.1292 85.3001 76.921 85.2587 76.7268 85.1782C76.5325 85.0977 76.356 84.9798 76.2074 84.8311L70.6183 79.2431C70.475 79.1046 70.3607 78.939 70.282 78.7559C70.2033 78.5728 70.1619 78.3759 70.1602 78.1766C70.1585 77.9773 70.1965 77.7797 70.2719 77.5952C70.3474 77.4108 70.4588 77.2432 70.5997 77.1023C70.7407 76.9614 70.9082 76.8499 71.0927 76.7745C71.2771 76.699 71.4747 76.661 71.674 76.6628C71.8733 76.6645 72.0702 76.7059 72.2533 76.7846C72.4364 76.8632 72.602 76.9776 72.7405 77.1209L77.339 81.7194L87.5976 71.4598C87.737 71.3204 87.9025 71.2097 88.0846 71.1342C88.2668 71.0588 88.462 71.0199 88.6592 71.0199C88.8563 71.0199 89.0516 71.0588 89.2337 71.1342C89.4159 71.2097 89.5814 71.3204 89.7207 71.4598Z" fill="white"/>
</g>
<defs>
<clipPath id="clip0_46_351">
<rect width="100" height="98" fill="white"/>
</clipPath>
</defs>
</svg>
