<svg width="55" height="55" viewBox="0 0 55 55" fill="none" xmlns="http://www.w3.org/2000/svg">
<path d="M8 27.5242C8 24.1962 8.72 21.2362 10.16 18.6442C11.6 16.0202 13.6 13.9882 16.16 12.5482C18.752 11.0762 21.68 10.3402 24.944 10.3402C28.944 10.3402 32.368 11.3962 35.216 13.5082C38.064 15.6202 39.968 18.5002 40.928 22.1482H31.904C31.232 20.7402 30.272 19.6682 29.024 18.9322C27.808 18.1962 26.416 17.8282 24.848 17.8282C22.32 17.8282 20.272 18.7082 18.704 20.4682C17.136 22.2282 16.352 24.5802 16.352 27.5242C16.352 30.4682 17.136 32.8202 18.704 34.5802C20.272 36.3402 22 37.8402 25 38.3402C27.2218 38.7105 28.3604 38.6682 30 38.3402C32.5 37.8402 34.5 36.7202 36.5 35.8402L40.928 32.9002C39.968 36.5482 38.064 39.4282 35.216 41.5402C32.368 43.6202 28.944 44.6602 24.944 44.6602C21.68 44.6602 18.752 43.9402 16.16 42.5002C13.6 41.0282 11.6 38.9962 10.16 36.4042C8.72 33.8122 8 30.8522 8 27.5242Z" fill="#C6C6C6"/>
<path d="M42.5 11.8402C44.0687 10.2714 46 10.3402 46 10.3402H47V44.3402H41C41 31.8352 41 28.243 41 16.3402C41 15.6047 40.9312 13.4091 42.5 11.8402Z" fill="#C6C6C6"/>
</svg>
